<svg xmlns="http://www.w3.org/2000/svg" viewBox="0 0 82.33 68.28"><defs><style>.cls-1{fill:#1a2854;}</style></defs><g id="Layer_2" data-name="Layer 2"><g id="Layer_1-2" data-name="Layer 1"><path class="cls-1" d="M77.59,66.27,71.06,48.19,53.72.15,53.66,0h-2.9L47,10.38l-1.83,5.07L39.21,32,36.14,40.5l-1,2.82-.74,2-1,2.82L27.49,64.44l-.32.9-.34.93-.23.63-.49,1.38h7.53A18.57,18.57,0,0,0,52.21,49.7c0-.51,0-1-.06-1.51a18.52,18.52,0,0,0-7.47-13.42A19.11,19.11,0,0,0,41.84,33l4.85-13.41,2.63,7.27L57,48.19l6.52,18.08h-7.3v2h26.1v-2ZM44.18,55.72c0,5.83-5.4,10.55-12,10.55a13.48,13.48,0,0,1-2.22-.18l1.08-3,5.38-14.89L37,46.35a2.2,2.2,0,0,0-.15-.31l.24.08a12.51,12.51,0,0,1,3.44,2.07A9.93,9.93,0,0,1,44.18,55.72Z"/><path class="cls-1" d="M41.72,0,40.66,2.93l-.31.88A24.51,24.51,0,0,0,27.11,0c-.85,0-1.68,0-2.5.12h0C13,1.26,4,10.21,4,21.09a20.24,20.24,0,0,0,7.43,15.49,23.06,23.06,0,0,0,5.18,3.3l1,.43a25.41,25.41,0,0,0,3.26,1.08l5.37,1.48-1.68,4.65-.24.67L20.55,58.64l-1.1,3L18.6,64A13.47,13.47,0,0,1,9.28,51.53a12.76,12.76,0,0,1,.45-3.34H7.25L.72,66.27l-.72,2H2.18a4,4,0,0,1,1.7-2,6.71,6.71,0,0,1,3.64-1,7.52,7.52,0,0,1,1.8.22l.11,0,2.91.76,5,1.29,2.75.72.73-2,.55-1.55.3-.82.72-2,4.95-13.73.88-2.44L29,43.63l.57-1.58.86-2.37,3.09-8.55,0-.07,1.94-5.36,5-13.85,1.71-4.74.56-1.55,2-5.56ZM31.83,27.4l-1,2.91a89.59,89.59,0,0,1-8.86-3.06s0,0,0,0a15.07,15.07,0,0,1-1.79-.77h0a13.89,13.89,0,0,1-3.91-2.95,11.42,11.42,0,0,1-3.12-7.76c0-5.66,4.32-10.43,10.21-11.9a15.74,15.74,0,0,1,3.85-.47,14.72,14.72,0,0,1,11.5,5.25Z"/></g></g></svg>